<?xml version="1.0" encoding="utf-8"?>
<!-- Generator: Adobe Illustrator 20.0.0, SVG Export Plug-In . SVG Version: 6.00 Build 0)  -->
<svg version="1.1" id="Layer_1" xmlns="http://www.w3.org/2000/svg" xmlns:xlink="http://www.w3.org/1999/xlink" x="0px" y="0px"
	 viewBox="0 0 420 210" style="enable-background:new 0 0 420 210;" xml:space="preserve">
<style type="text/css">
	.st0{fill:#FFFFFF;}
	.st1{fill:#1DA1F3;}
	.st2{opacity:0.5;}
	.st3{clip-path:url(#SVGID_2_);}
	.st4{clip-path:url(#SVGID_4_);}
	.st5{clip-path:url(#SVGID_6_);}
	.st6{clip-path:url(#SVGID_8_);}
	.st7{clip-path:url(#SVGID_10_);}
	.st8{opacity:0.3;clip-path:url(#SVGID_12_);}
</style>
<g>
	<path class="st0" d="M56.3,203.3H7.7c-1.6,0-3-1.3-3-3V57.7c0-1.7,1.4-3,3-3h48.7c1.7,0,3,1.3,3,3v142.7
		C59.3,202,58,203.3,56.3,203.3z"/>
	<path class="st1" d="M56.3,203.8H7.7c-1.9,0-3.5-1.6-3.5-3.5V57.7c0-1.9,1.6-3.5,3.5-3.5h48.7c1.9,0,3.5,1.6,3.5,3.5v142.7
		C59.8,202.3,58.3,203.8,56.3,203.8z M7.7,55.2c-1.4,0-2.5,1.1-2.5,2.5v142.7c0,1.4,1.1,2.5,2.5,2.5h48.7c1.4,0,2.5-1.1,2.5-2.5
		V57.7c0-1.4-1.1-2.5-2.5-2.5H7.7z"/>
</g>
<g>
	<path class="st0" d="M119,203.3H70.3c-1.7,0-3-1.3-3-3V65.7c0-1.6,1.3-3,3-3H119c1.7,0,3,1.4,3,3v134.7
		C122,202,120.7,203.3,119,203.3z"/>
	<path class="st1" d="M119,203.8H70.3c-1.9,0-3.5-1.6-3.5-3.5V65.7c0-1.9,1.6-3.5,3.5-3.5H119c1.9,0,3.5,1.6,3.5,3.5v134.7
		C122.5,202.3,120.9,203.8,119,203.8z M70.3,63.2c-1.4,0-2.5,1.1-2.5,2.5v134.7c0,1.4,1.1,2.5,2.5,2.5H119c1.4,0,2.5-1.1,2.5-2.5
		V65.7c0-1.4-1.1-2.5-2.5-2.5H70.3z"/>
</g>
<g>
	<path class="st0" d="M181.7,203.3H133c-1.6,0-3-1.3-3-3V42.9c0-1.6,1.4-3,3-3h48.7c1.6,0,3,1.4,3,3v157.4
		C184.7,202,183.3,203.3,181.7,203.3z"/>
	<path class="st1" d="M181.7,203.8H133c-1.9,0-3.5-1.6-3.5-3.5V42.9c0-1.9,1.6-3.5,3.5-3.5h48.7c1.9,0,3.5,1.6,3.5,3.5v157.4
		C185.2,202.3,183.6,203.8,181.7,203.8z M133,40.4c-1.4,0-2.5,1.1-2.5,2.5v157.4c0,1.4,1.1,2.5,2.5,2.5h48.7c1.4,0,2.5-1.1,2.5-2.5
		V42.9c0-1.4-1.1-2.5-2.5-2.5H133z"/>
</g>
<g>
	<path class="st0" d="M244.3,203.3h-48.7c-1.7,0-3-1.3-3-3V75c0-1.6,1.3-3,3-3h48.7c1.7,0,3,1.4,3,3v125.4
		C247.3,202,246,203.3,244.3,203.3z"/>
	<path class="st1" d="M244.3,203.8h-48.7c-1.9,0-3.5-1.6-3.5-3.5V75c0-1.9,1.6-3.5,3.5-3.5h48.7c1.9,0,3.5,1.6,3.5,3.5v125.4
		C247.8,202.3,246.3,203.8,244.3,203.8z M195.7,72.5c-1.4,0-2.5,1.1-2.5,2.5v125.4c0,1.4,1.1,2.5,2.5,2.5h48.7
		c1.4,0,2.5-1.1,2.5-2.5V75c0-1.4-1.1-2.5-2.5-2.5H195.7z"/>
</g>
<g>
	<path class="st0" d="M310.7,203.3H262c-1.6,0-3-1.3-3-3V53.9c0-1.7,1.4-3,3-3h48.7c1.7,0,3,1.3,3,3v146.5
		C313.7,202,312.3,203.3,310.7,203.3z"/>
	<path class="st1" d="M310.7,203.8H262c-1.9,0-3.5-1.6-3.5-3.5V53.9c0-1.9,1.6-3.5,3.5-3.5h48.7c1.9,0,3.5,1.6,3.5,3.5v146.5
		C314.2,202.3,312.6,203.8,310.7,203.8z M262,51.4c-1.4,0-2.5,1.1-2.5,2.5v146.5c0,1.4,1.1,2.5,2.5,2.5h48.7c1.4,0,2.5-1.1,2.5-2.5
		V53.9c0-1.4-1.1-2.5-2.5-2.5H262z"/>
</g>
<g>
	<path class="st1" d="M411.3,203.3h-48.7c-1.6,0-3-1.3-3-3V37.2c0-1.7,1.4-3,3-3h48.7c1.6,0,3,1.3,3,3v163.1
		C414.3,202,413,203.3,411.3,203.3z"/>
</g>
<g>
	<path class="st1" d="M16.6,194.5l-0.1-1.8c0.3,0,0.6,0.1,0.9,0.1c0.6,0,1-0.2,1.3-0.5c0.2-0.3,0.3-0.8,0.3-1.6v-11.2h2.3v11
		c0,0.7-0.1,1.3-0.2,1.8c-0.1,0.5-0.3,0.9-0.6,1.2c-0.3,0.3-0.7,0.6-1.2,0.7c-0.5,0.2-1.1,0.2-1.8,0.2
		C17.1,194.6,16.9,194.6,16.6,194.5z"/>
	<path class="st1" d="M22.5,191.9l4.5-12.2h2.5l4.4,12.2h-2.3l-1.2-3.5h-4.3l-1.2,3.5H22.5z M26.7,186.7h3.1c-1-3.2-1.5-4.9-1.5-5
		L26.7,186.7z"/>
	<path class="st1" d="M35.1,191.9v-12.2h2.4c0.4,0.7,1.3,2,2.6,4.1s2.1,3.3,2.4,3.8c0.1,0.1,0.2,0.3,0.4,0.6
		c0.2,0.3,0.3,0.5,0.4,0.6c0-1.9-0.1-2.9-0.1-3v-6.2h2.1v12.2H43l-5.5-8.6l-0.4-0.7c0,1.5,0.1,2.5,0.1,3.1v6.2H35.1z"/>
</g>
<g>
	<path class="st1" d="M81.1,191.9v-12.2h7.2l-0.1,1.8h-4.9v3.5H88v1.8h-4.7v5.2H81.1z"/>
	<path class="st1" d="M90.3,191.9v-12.2h7.4l-0.1,1.8h-5.1v3.2h4.8v1.8h-4.8v3.7h5.2l-0.1,1.8H90.3z"/>
	<path class="st1" d="M103,191.9l-4.4-12.2h2.3l2.6,7.6c0.1,0.3,0.3,1,0.7,2.3c0-0.1,0.1-0.5,0.3-1.1s0.3-1,0.4-1.2
		c0.1-0.2,0.5-1.4,1.3-3.8c0.8-2.3,1.2-3.6,1.3-3.8h2.3l-4.4,12.2H103z"/>
</g>
<g>
	<path class="st1" d="M139.5,191.9v-12.2h2.7l3.7,8.8l3.7-8.8h2.6v12.2h-2.1v-6l0.1-3.5l-0.3,0.9l-3.1,7.8h-1.9l-3.1-7.8l-0.3-0.9
		l0.1,3.5v6H139.5z"/>
	<path class="st1" d="M153.5,191.9l4.5-12.2h2.5l4.4,12.2h-2.3l-1.2-3.5h-4.3l-1.2,3.5H153.5z M157.7,186.7h3.1
		c-1-3.2-1.5-4.9-1.5-5L157.7,186.7z"/>
	<path class="st1" d="M166.1,191.9v-12.3h4.5c0.6,0,1.2,0,1.6,0.1c0.5,0.1,0.9,0.2,1.3,0.3c0.4,0.1,0.7,0.3,1,0.6
		c0.3,0.3,0.5,0.6,0.6,1c0.1,0.4,0.2,0.9,0.2,1.4c0,1.6-0.7,2.7-2.2,3.2c0.3,0.3,0.7,1,1.1,1.9l1.8,3.8h-2.5l-1.4-3.2
		c-0.5-1.1-0.9-1.8-1-2c-0.1,0-0.4,0-0.9,0l-1.9,0v5.3H166.1z M170.8,185c0.9,0,1.5-0.2,1.9-0.5s0.6-0.8,0.6-1.5
		c0-0.6-0.2-1-0.6-1.3c-0.4-0.3-1-0.4-1.8-0.4h-2.6v3.7c0.1,0,0.5,0,1.2,0C170.3,185,170.7,185,170.8,185z"/>
</g>
<g>
	<path class="st1" d="M202.9,191.9l4.5-12.2h2.5l4.4,12.2H212l-1.2-3.5h-4.3l-1.2,3.5H202.9z M207.1,186.7h3.1c-1-3.2-1.5-4.9-1.5-5
		L207.1,186.7z"/>
	<path class="st1" d="M215.6,191.9v-12.2h3.8c1.6,0,2.8,0.2,3.6,0.7c0.8,0.5,1.2,1.3,1.2,2.4c0,0.2,0,0.4,0,0.5
		c0,0.2-0.1,0.4-0.2,0.6c-0.1,0.2-0.2,0.4-0.3,0.6c-0.1,0.2-0.3,0.4-0.5,0.5c-0.2,0.2-0.5,0.3-0.8,0.4c0.8,0.2,1.3,0.5,1.7,1.1
		c0.4,0.5,0.6,1.2,0.6,1.9c0,1.2-0.4,2-1.2,2.6c-0.8,0.6-1.9,0.9-3.4,0.9H215.6z M217.9,184.7h1.9c1.5,0,2.2-0.6,2.2-1.7
		c0-0.6-0.2-1.1-0.6-1.3c-0.4-0.2-1.1-0.4-2.1-0.4h-1.5V184.7z M217.9,190.2h2c1.7,0,2.6-0.7,2.6-2c0-0.7-0.2-1.2-0.7-1.5
		c-0.4-0.3-1.1-0.5-2-0.5h-1.9V190.2z"/>
	<path class="st1" d="M226.7,191.9v-12.3h4.5c0.6,0,1.2,0,1.6,0.1c0.5,0.1,0.9,0.2,1.3,0.3c0.4,0.1,0.7,0.3,1,0.6
		c0.3,0.3,0.5,0.6,0.6,1c0.1,0.4,0.2,0.9,0.2,1.4c0,1.6-0.7,2.7-2.2,3.2c0.3,0.3,0.7,1,1.1,1.9l1.8,3.8h-2.5l-1.4-3.2
		c-0.5-1.1-0.9-1.8-1-2c-0.1,0-0.4,0-0.9,0l-1.9,0v5.3H226.7z M231.4,185c0.9,0,1.5-0.2,1.9-0.5c0.4-0.3,0.6-0.8,0.6-1.5
		c0-0.6-0.2-1-0.6-1.3c-0.4-0.3-1-0.4-1.8-0.4h-2.6v3.7c0.1,0,0.5,0,1.2,0C230.9,185,231.3,185,231.4,185z"/>
</g>
<g>
	<path class="st1" d="M271.8,191.9v-12.2h2.7l3.7,8.8l3.7-8.8h2.6v12.2h-2.1v-6l0.1-3.5l-0.3,0.9l-3.1,7.8h-1.9l-3.1-7.8l-0.3-0.9
		l0.1,3.5v6H271.8z"/>
	<path class="st1" d="M285.8,191.9l4.5-12.2h2.5l4.4,12.2h-2.3l-1.2-3.5h-4.3l-1.2,3.5H285.8z M290,186.7h3.1c-1-3.2-1.5-4.9-1.5-5
		L290,186.7z"/>
	<path class="st1" d="M298.6,191.9v-12.2h2.3v12.2H298.6z"/>
</g>
<g>
	<path class="st1" d="M328.7,141.7c-0.7,0-1.4-0.3-1.9-0.8s-0.8-1.1-0.8-1.8c0-0.7,0.3-1.4,0.8-1.9c0.5-0.5,1.1-0.8,1.9-0.8
		c0.7,0,1.4,0.3,1.9,0.8c0.5,0.5,0.8,1.2,0.8,1.9c0,0.7-0.3,1.3-0.8,1.8C330,141.5,329.4,141.7,328.7,141.7z"/>
	<path class="st1" d="M336.8,141.7c-0.7,0-1.4-0.3-1.9-0.8s-0.8-1.1-0.8-1.8c0-0.7,0.3-1.4,0.8-1.9c0.5-0.5,1.1-0.8,1.9-0.8
		c0.7,0,1.4,0.3,1.9,0.8c0.5,0.5,0.8,1.2,0.8,1.9c0,0.7-0.3,1.3-0.8,1.8C338.2,141.5,337.6,141.7,336.8,141.7z"/>
	<path class="st1" d="M345,141.7c-0.7,0-1.4-0.3-1.9-0.8s-0.8-1.1-0.8-1.8c0-0.7,0.3-1.4,0.8-1.9c0.5-0.5,1.1-0.8,1.9-0.8
		c0.7,0,1.4,0.3,1.9,0.8c0.5,0.5,0.8,1.2,0.8,1.9c0,0.7-0.3,1.3-0.8,1.8C346.3,141.5,345.7,141.7,345,141.7z"/>
</g>
<g class="st2">
	<defs>
		<path id="SVGID_1_" class="st2" d="M56.3,54.7H7.7c-1.7,0-3,1.4-3,3v9.1V69v3h3h48.7h3v-3v-2.2v-9.1C59.3,56,58,54.7,56.3,54.7z"
			/>
	</defs>
	<clipPath id="SVGID_2_">
		<use xlink:href="#SVGID_1_"  style="overflow:visible;"/>
	</clipPath>
	<g class="st3">
		<g>
			<rect x="2.1" y="1.6" transform="matrix(0.7071 0.7071 -0.7071 0.7071 23.7637 5.3018)" class="st1" width="6.8" height="59.5"/>
		</g>
		<g>
			<rect x="10.2" y="9.6" transform="matrix(0.7071 0.7071 -0.7071 0.7071 31.8242 1.963)" class="st1" width="6.8" height="59.5"/>
		</g>
		<g>
			
				<rect x="18.2" y="17.7" transform="matrix(0.7071 0.7071 -0.7071 0.7071 39.8847 -1.3758)" class="st1" width="6.8" height="59.5"/>
		</g>
		<g>
			
				<rect x="26.3" y="25.8" transform="matrix(0.7071 0.7071 -0.7071 0.7071 47.9452 -4.7145)" class="st1" width="6.8" height="59.5"/>
		</g>
		<g>
			
				<rect x="34.3" y="33.8" transform="matrix(0.7071 0.7071 -0.7071 0.7071 56.0057 -8.0533)" class="st1" width="6.8" height="59.5"/>
		</g>
		<g>
			
				<rect x="41.6" y="41" transform="matrix(0.7071 0.7071 -0.7071 0.7071 63.2203 -11.0417)" class="st1" width="6.8" height="59.5"/>
		</g>
		<g>
			
				<rect x="49.6" y="49.1" transform="matrix(0.7071 0.7071 -0.7071 0.7071 71.2808 -14.3804)" class="st1" width="6.8" height="59.5"/>
		</g>
		<g>
			
				<rect x="57.7" y="57.1" transform="matrix(0.7071 0.7071 -0.7071 0.7071 79.3413 -17.7192)" class="st1" width="6.8" height="59.5"/>
		</g>
	</g>
</g>
<g class="st2">
	<defs>
		<path id="SVGID_3_" class="st2" d="M119,62.3H70.3c-1.7,0-3,1.4-3,3v9.1v2.2v3h3H119h3v-3v-2.2v-9.1C122,63.7,120.7,62.3,119,62.3
			z"/>
	</defs>
	<clipPath id="SVGID_4_">
		<use xlink:href="#SVGID_3_"  style="overflow:visible;"/>
	</clipPath>
	<g class="st4">
		<g>
			
				<rect x="64.8" y="9.2" transform="matrix(0.7071 0.7071 -0.7071 0.7071 47.5321 -36.7677)" class="st1" width="6.8" height="59.5"/>
		</g>
		<g>
			
				<rect x="72.8" y="17.3" transform="matrix(0.7071 0.7071 -0.7071 0.7071 55.5926 -40.1064)" class="st1" width="6.8" height="59.5"/>
		</g>
		<g>
			
				<rect x="80.9" y="25.3" transform="matrix(0.7071 0.7071 -0.7071 0.7071 63.6531 -43.4452)" class="st1" width="6.8" height="59.5"/>
		</g>
		<g>
			
				<rect x="89" y="33.4" transform="matrix(0.7071 0.7071 -0.7071 0.7071 71.7136 -46.784)" class="st1" width="6.8" height="59.5"/>
		</g>
		<g>
			
				<rect x="97" y="41.5" transform="matrix(0.7071 0.7071 -0.7071 0.7071 79.774 -50.1227)" class="st1" width="6.8" height="59.5"/>
		</g>
		<g>
			
				<rect x="104.2" y="48.7" transform="matrix(0.7071 0.7071 -0.7071 0.7071 86.9887 -53.1111)" class="st1" width="6.8" height="59.5"/>
		</g>
		<g>
			
				<rect x="112.3" y="56.7" transform="matrix(0.7071 0.7071 -0.7071 0.7071 95.0492 -56.4499)" class="st1" width="6.8" height="59.5"/>
		</g>
		<g>
			
				<rect x="120.3" y="64.8" transform="matrix(0.7071 0.7071 -0.7071 0.7071 103.1097 -59.7887)" class="st1" width="6.8" height="59.5"/>
		</g>
	</g>
</g>
<g class="st2">
	<defs>
		<path id="SVGID_5_" class="st2" d="M181.7,39.9H133c-1.7,0-3,1.4-3,3V52v2.2v3h3h48.7h3v-3V52v-9.1
			C184.7,41.3,183.3,39.9,181.7,39.9z"/>
	</defs>
	<clipPath id="SVGID_6_">
		<use xlink:href="#SVGID_5_"  style="overflow:visible;"/>
	</clipPath>
	<g class="st5">
		<g>
			
				<rect x="127.4" y="-13.2" transform="matrix(0.7071 0.7071 -0.7071 0.7071 50.0616 -87.6348)" class="st1" width="6.8" height="59.5"/>
		</g>
		<g>
			
				<rect x="135.5" y="-5.1" transform="matrix(0.7071 0.7071 -0.7071 0.7071 58.1221 -90.9736)" class="st1" width="6.8" height="59.5"/>
		</g>
		<g>
			
				<rect x="143.6" y="3" transform="matrix(0.7071 0.7071 -0.7071 0.7071 66.1826 -94.3123)" class="st1" width="6.8" height="59.5"/>
		</g>
		<g>
			
				<rect x="151.6" y="11" transform="matrix(0.7071 0.7071 -0.7071 0.7071 74.2431 -97.6511)" class="st1" width="6.8" height="59.5"/>
		</g>
		<g>
			
				<rect x="159.7" y="19.1" transform="matrix(0.7071 0.7071 -0.7071 0.7071 82.3036 -100.9899)" class="st1" width="6.8" height="59.5"/>
		</g>
		<g>
			
				<rect x="166.9" y="26.3" transform="matrix(0.7071 0.7071 -0.7071 0.7071 89.5182 -103.9783)" class="st1" width="6.8" height="59.5"/>
		</g>
		<g>
			
				<rect x="175" y="34.4" transform="matrix(0.7071 0.7071 -0.7071 0.7071 97.5787 -107.317)" class="st1" width="6.8" height="59.5"/>
		</g>
		<g>
			
				<rect x="183" y="42.4" transform="matrix(0.7071 0.7071 -0.7071 0.7071 105.6392 -110.6558)" class="st1" width="6.8" height="59.5"/>
		</g>
	</g>
</g>
<g class="st2">
	<defs>
		<path id="SVGID_7_" class="st2" d="M244.3,72h-48.7c-1.7,0-3,1.4-3,3v9.1v2.2v3h3h48.7h3v-3v-2.2V75C247.3,73.3,246,72,244.3,72z"
			/>
	</defs>
	<clipPath id="SVGID_8_">
		<use xlink:href="#SVGID_7_"  style="overflow:visible;"/>
	</clipPath>
	<g class="st6">
		<g>
			
				<rect x="190.1" y="18.9" transform="matrix(0.7071 0.7071 -0.7071 0.7071 91.0694 -122.5636)" class="st1" width="6.8" height="59.5"/>
		</g>
		<g>
			
				<rect x="198.2" y="26.9" transform="matrix(0.7071 0.7071 -0.7071 0.7071 99.1299 -125.9023)" class="st1" width="6.8" height="59.5"/>
		</g>
		<g>
			
				<rect x="206.2" y="35" transform="matrix(0.7071 0.7071 -0.7071 0.7071 107.1904 -129.2411)" class="st1" width="6.8" height="59.5"/>
		</g>
		<g>
			
				<rect x="214.3" y="43.1" transform="matrix(0.7071 0.7071 -0.7071 0.7071 115.2509 -132.5799)" class="st1" width="6.8" height="59.5"/>
		</g>
		<g>
			
				<rect x="222.3" y="51.1" transform="matrix(0.7071 0.7071 -0.7071 0.7071 123.3114 -135.9186)" class="st1" width="6.8" height="59.5"/>
		</g>
		<g>
			
				<rect x="229.6" y="58.3" transform="matrix(0.7071 0.7071 -0.7071 0.7071 130.526 -138.907)" class="st1" width="6.8" height="59.5"/>
		</g>
		<g>
			
				<rect x="237.6" y="66.4" transform="matrix(0.7071 0.7071 -0.7071 0.7071 138.5865 -142.2458)" class="st1" width="6.8" height="59.5"/>
		</g>
		<g>
			
				<rect x="245.7" y="74.5" transform="matrix(0.7071 0.7071 -0.7071 0.7071 146.647 -145.5846)" class="st1" width="6.8" height="59.5"/>
		</g>
	</g>
</g>
<g class="st2">
	<defs>
		<path id="SVGID_9_" class="st2" d="M310.7,50.9H262c-1.7,0-3,1.4-3,3V63v2.2v3h3h48.7h3v-3V63v-9.1
			C313.7,52.2,312.3,50.9,310.7,50.9z"/>
	</defs>
	<clipPath id="SVGID_10_">
		<use xlink:href="#SVGID_9_"  style="overflow:visible;"/>
	</clipPath>
	<g class="st7">
		<g>
			
				<rect x="256.4" y="-2.2" transform="matrix(0.7071 0.7071 -0.7071 0.7071 95.5797 -175.6477)" class="st1" width="6.8" height="59.5"/>
		</g>
		<g>
			
				<rect x="264.5" y="5.8" transform="matrix(0.7071 0.7071 -0.7071 0.7071 103.6402 -178.9865)" class="st1" width="6.8" height="59.5"/>
		</g>
		<g>
			
				<rect x="272.6" y="13.9" transform="matrix(0.7071 0.7071 -0.7071 0.7071 111.7007 -182.3252)" class="st1" width="6.8" height="59.5"/>
		</g>
		<g>
			
				<rect x="280.6" y="22" transform="matrix(0.7071 0.7071 -0.7071 0.7071 119.7612 -185.664)" class="st1" width="6.8" height="59.5"/>
		</g>
		<g>
			
				<rect x="288.7" y="30" transform="matrix(0.7071 0.7071 -0.7071 0.7071 127.8217 -189.0027)" class="st1" width="6.8" height="59.5"/>
		</g>
		<g>
			
				<rect x="295.9" y="37.2" transform="matrix(0.7071 0.7071 -0.7071 0.7071 135.0363 -191.9911)" class="st1" width="6.8" height="59.5"/>
		</g>
		<g>
			
				<rect x="304" y="45.3" transform="matrix(0.7071 0.7071 -0.7071 0.7071 143.0968 -195.3299)" class="st1" width="6.8" height="59.5"/>
		</g>
		<g>
			
				<rect x="312" y="53.4" transform="matrix(0.7071 0.7071 -0.7071 0.7071 151.1573 -198.6687)" class="st1" width="6.8" height="59.5"/>
		</g>
	</g>
</g>
<g>
	<defs>
		<path id="SVGID_11_" d="M411.3,203.3h-48.7c-1.6,0-3-1.3-3-3V37.2c0-1.7,1.4-3,3-3h48.7c1.6,0,3,1.3,3,3v163.1
			C414.3,202,413,203.3,411.3,203.3z"/>
	</defs>
	<clipPath id="SVGID_12_">
		<use xlink:href="#SVGID_11_"  style="overflow:visible;"/>
	</clipPath>
	<g class="st8">
		<g>
			
				<rect x="339" y="-34.9" transform="matrix(0.7071 0.7071 -0.7071 0.7071 142.992 -224.4299)" class="st0" width="6.8" height="190.5"/>
		</g>
		<g>
			
				<rect x="347.1" y="-26.8" transform="matrix(0.7071 0.7071 -0.7071 0.7071 151.0525 -227.7686)" class="st0" width="6.8" height="190.5"/>
		</g>
		<g>
			
				<rect x="355.2" y="-18.7" transform="matrix(0.7071 0.7071 -0.7071 0.7071 159.113 -231.1074)" class="st0" width="6.8" height="190.5"/>
		</g>
		<g>
			
				<rect x="363.2" y="-10.7" transform="matrix(0.7071 0.7071 -0.7071 0.7071 167.1735 -234.4462)" class="st0" width="6.8" height="190.5"/>
		</g>
		<g>
			
				<rect x="371.3" y="-2.6" transform="matrix(0.7071 0.7071 -0.7071 0.7071 175.234 -237.7849)" class="st0" width="6.8" height="190.5"/>
		</g>
		<g>
			
				<rect x="378.5" y="4.6" transform="matrix(0.7071 0.7071 -0.7071 0.7071 182.4487 -240.7733)" class="st0" width="6.8" height="190.5"/>
		</g>
		<g>
			
				<rect x="386.5" y="12.7" transform="matrix(0.7071 0.7071 -0.7071 0.7071 190.5092 -244.1121)" class="st0" width="6.8" height="190.5"/>
		</g>
		<g>
			
				<rect x="394.6" y="20.7" transform="matrix(0.7071 0.7071 -0.7071 0.7071 198.5697 -247.4509)" class="st0" width="6.8" height="190.5"/>
		</g>
	</g>
	<g class="st8">
		<g>
			
				<rect x="402.1" y="28.2" transform="matrix(0.7071 0.7071 -0.7071 0.7071 206.0667 -250.5562)" class="st0" width="6.8" height="190.5"/>
		</g>
		<g>
			
				<rect x="410.2" y="36.3" transform="matrix(0.7071 0.7071 -0.7071 0.7071 214.1272 -253.895)" class="st0" width="6.8" height="190.5"/>
		</g>
		<g>
			
				<rect x="418.2" y="44.3" transform="matrix(0.7071 0.7071 -0.7071 0.7071 222.1877 -257.2338)" class="st0" width="6.8" height="190.5"/>
		</g>
		<g>
			
				<rect x="426.3" y="52.4" transform="matrix(0.7071 0.7071 -0.7071 0.7071 230.2482 -260.5725)" class="st0" width="6.8" height="190.5"/>
		</g>
		<g>
			
				<rect x="434.3" y="60.5" transform="matrix(0.7071 0.7071 -0.7071 0.7071 238.3087 -263.9113)" class="st0" width="6.8" height="190.5"/>
		</g>
		<g>
			
				<rect x="441.6" y="67.7" transform="matrix(0.7071 0.7071 -0.7071 0.7071 245.5233 -266.8997)" class="st0" width="6.8" height="190.5"/>
		</g>
		<g>
			
				<rect x="449.6" y="75.7" transform="matrix(0.7071 0.7071 -0.7071 0.7071 253.5838 -270.2385)" class="st0" width="6.8" height="190.5"/>
		</g>
		<g>
			
				<rect x="457.7" y="83.8" transform="matrix(0.7071 0.7071 -0.7071 0.7071 261.6443 -273.5772)" class="st0" width="6.8" height="190.5"/>
		</g>
	</g>
</g>
<g>
	<path class="st0" d="M372.2,191.9v-12.2h3.5c1.1,0,2,0.1,2.9,0.4s1.6,0.6,2.2,1.1c0.6,0.5,1.1,1.1,1.4,1.9c0.3,0.8,0.5,1.7,0.5,2.7
		c0,2-0.6,3.5-1.8,4.6s-2.8,1.6-4.9,1.6H372.2z M374.4,190.1h1.6c1.4,0,2.5-0.4,3.2-1.1s1.1-1.8,1.1-3.2c0-1.5-0.4-2.6-1.1-3.3
		c-0.8-0.7-1.9-1-3.4-1h-1.4V190.1z"/>
	<path class="st0" d="M384.8,191.9v-12.2h7.4l-0.1,1.8h-5.1v3.2h4.8v1.8h-4.8v3.7h5.2l-0.1,1.8H384.8z"/>
	<path class="st0" d="M393.6,191.9v-1.5l6.5-9h-6.2v-1.8h8.9v1.6l-6.3,8.8h6.4l0,1.8H393.6z"/>
</g>
</svg>
