<?xml version="1.0" encoding="utf-8"?>
<!-- Generator: Adobe Illustrator 16.0.0, SVG Export Plug-In . SVG Version: 6.00 Build 0)  -->
<!DOCTYPE svg PUBLIC "-//W3C//DTD SVG 1.1//EN" "http://www.w3.org/Graphics/SVG/1.1/DTD/svg11.dtd">
<svg version="1.1" id="Layer_1" xmlns="http://www.w3.org/2000/svg" xmlns:xlink="http://www.w3.org/1999/xlink" x="0px" y="0px"
	 width="210px" height="59px" viewBox="0 0 210 59" enable-background="new 0 0 210 59" xml:space="preserve">
<g>
	<g>
		<g>
			<g>
				<g>
					<path fill="#00ADEE" d="M117.259,12.864H87.337c-0.895,0-1.627,0.73-1.627,1.626v29.923c0,0.896,0.732,1.626,1.627,1.626
						h29.921c0.895,0,1.627-0.73,1.627-1.626V14.49C118.886,13.595,118.153,12.864,117.259,12.864z"/>
				</g>
				<g>
					<path fill="#FFFFFF" d="M116.666,32.64c-1.201-1.523-4.137-1.842-5.727-1.842c-6.625,0-12.96,1.23-18.792,3.479
						c0.049-1.727,0.001-3.456-0.193-5.16c4.438-1.297,12.27-2.338,17.425-1.885C114.193,27.654,116.008,30.337,116.666,32.64z
						 M114.509,28.245c-1.341-1.261-2.366-2.17-6.437-2.758c-4.071-0.588-12.683,0.3-16.495,1.261
						c-0.274-1.508-0.641-2.994-1.103-4.452c2.612-0.46,5.299-0.7,8.044-0.7c2.667,0,5.284,0.228,7.828,0.662
						C111.73,23.178,113.443,26.194,114.509,28.245z M87.556,15.695c13.864-0.358,21.653,5.709,23.206,7.383
						c-1.352-1.127-3.955-2.085-6.199-2.517c-2.758-0.529-5.603-0.805-8.527-0.805c-2.136,0-4.239,0.148-6.294,0.438
						C89.214,18.826,88.246,16.991,87.556,15.695z M114.509,41.425c2.23-4.608,1.708-5.416-2.673-4.879
						c-6.807,0.832-15.388,3.744-21.869,7.247c1.185-2.29,1.762-4.592,1.986-6.672c6.26-2.747,13.146-4.328,20.386-4.472
						C119.914,32.499,117.072,38.297,114.509,41.425z"/>
				</g>
			</g>
			<g>
				<g>
					<path fill="#231F20" d="M58.22,32.343c0.934-0.138,2.326-0.24,3.871-0.24c1.907,0,3.242,0.256,4.157,0.902
						c0.763,0.546,1.182,1.695,1.182,2.752c0,1.465-0.944,2.51-2.051,2.866v0.052c0.551,0.767,3.834,4.987,3.834,4.987h-3.209
						l-3.449-4.513H61.1v4.513h-2.88V32.343z M61.1,37.279h1.143c1.451,0,2.309-0.648,2.309-1.653c0-1.056-0.803-1.583-2.136-1.6
						c-0.706,0-1.107,0.052-1.315,0.084V37.279z M15.592,40.997c0.784,0.357,1.986,0.715,3.227,0.715
						c1.337,0,2.043-0.494,2.043-1.244c0-0.717-0.611-1.125-2.158-1.618c-2.137-0.664-3.53-1.721-3.53-3.392
						c0-1.961,1.831-3.46,4.866-3.46c1.453,0,2.521,0.274,3.284,0.581l-0.648,2.095c-0.515-0.22-1.433-0.545-2.693-0.545
						c-1.259,0-1.872,0.511-1.872,1.106c0,0.734,0.726,1.057,2.388,1.619c2.272,0.751,3.339,1.807,3.339,3.427
						c0,1.925-1.66,3.579-5.192,3.579c-1.47,0-2.921-0.358-3.647-0.717L15.592,40.997z M32.508,38.816h-4.736v2.726h5.289v2.131
						h-8.209V32.187h7.941v2.131h-5.021v2.387h4.736V38.816z M44.84,43.144c-0.896,0.272-2.595,0.646-4.296,0.646
						c-2.348,0-4.046-0.527-5.231-1.55c-1.183-0.989-1.832-2.489-1.812-4.175c0.02-3.816,3.129-6,7.35-6
						c1.662,0,2.939,0.29,3.571,0.564l-0.61,2.077c-0.707-0.271-1.585-0.491-2.999-0.491c-2.424,0-4.256,1.225-4.256,3.713
						c0,2.369,1.661,3.767,4.046,3.767c0.669,0,1.204-0.067,1.432-0.171v-2.401l0.01-2.028h2.796V43.144z M49.061,32.187v6.611
						c0,1.977,0.838,2.982,2.327,2.982c1.529,0,2.368-0.954,2.368-2.982v-6.611h2.903v6.441c0,3.545-2.004,5.232-5.365,5.232
						c-3.247,0-5.155-1.604-5.155-5.268v-6.406H49.061z M80.572,37.812c0,3.766-2.558,6.049-6.319,6.049
						c-3.818,0-6.053-2.574-6.053-5.848c0-3.441,2.464-6.015,6.263-6.015C78.415,31.998,80.572,34.64,80.572,37.812z M71.275,37.964
						c0,2.249,1.184,3.834,3.131,3.834c1.965,0,3.093-1.67,3.093-3.902c0-2.061-1.108-3.836-3.114-3.836
						C72.418,34.06,71.275,35.729,71.275,37.964z"/>
				</g>
				<g>
					<path fill="#231F20" d="M25.171,16.243c-1.034-0.738-2.575-1.098-4.715-1.098c-1.85,0-3.416,0.091-4.663,0.275v13.559h3.261
						c0-0.237,0-5.017,0-5.017l0.14,0.021c0.314,0.039,0.727,0.06,1.191,0.06c2.155,0,3.888-0.498,5.01-1.444
						c0.899-0.762,1.396-1.907,1.396-3.224C26.792,18.11,26.204,16.969,25.171,16.243z M20.363,21.865
						c-0.557,0-0.919-0.024-1.21-0.086l-0.098-0.021v-4.324l0.093-0.025c0.159-0.037,0.621-0.127,1.495-0.127
						c1.81,0,2.89,0.812,2.89,2.177C23.532,20.942,22.317,21.865,20.363,21.865z M34.908,15.021c-4.413,0-7.496,2.959-7.496,7.195
						c0,4.182,2.911,6.992,7.241,6.992c4.598,0,7.568-2.843,7.568-7.24C42.222,18.51,39.96,15.021,34.908,15.021z M34.84,26.948
						c-2.392,0-3.936-1.882-3.936-4.792c0-2.915,1.572-4.874,3.914-4.874c2.303,0,3.91,1.97,3.91,4.791
						C38.728,25.034,37.204,26.948,34.84,26.948z M52.131,23.102l-0.024-0.032v-0.192l0.087-0.03
						c1.113-0.357,2.413-1.458,2.413-3.375c0-1.35-0.559-2.656-1.387-3.249c-1.053-0.744-2.593-1.077-4.995-1.077
						c-1.677,0-3.342,0.103-4.592,0.275v13.559h3.26c0-0.238,0-5.495,0-5.495h1.958c0,0,4.13,5.399,4.203,5.495h3.594
						C55.904,28.024,52.72,23.921,52.131,23.102z M48.41,21.45h-1.517v-4.086l0.102-0.019c0.431-0.069,0.979-0.105,1.626-0.105
						c1.757,0.022,2.725,0.759,2.725,2.074C51.347,20.633,50.225,21.45,48.41,21.45z M66.853,15.249c0,0.216,0,2.189,0,2.405
						c-0.233,0-4.278,0-4.278,0s0,11.082,0,11.325c-0.221,0-3.081,0-3.305,0c0-0.243,0-11.325,0-11.325s-3.97,0-4.205,0
						c0-0.216,0-2.189,0-2.405C55.307,15.249,66.61,15.249,66.853,15.249z M73.926,15.021c-4.414,0-7.498,2.959-7.498,7.195
						c0,4.182,2.91,6.992,7.243,6.992c4.595,0,7.565-2.843,7.565-7.24C81.237,18.51,78.978,15.021,73.926,15.021z M73.856,26.948
						c-2.39,0-3.936-1.882-3.936-4.792c0-2.915,1.572-4.874,3.913-4.874c2.303,0,3.911,1.97,3.911,4.791
						C77.745,25.034,76.22,26.948,73.856,26.948z"/>
				</g>
			</g>
		</g>
	</g>
	<g>
		<g>
			<path fill="#0098CC" d="M141.684,16.472c-11.494,2.473-19.326,7.379-19.326,13.026c0,1.495,0.557,2.942,1.574,4.306
				c-0.61,1.559-0.744,3.091-0.338,4.537c1.457,5.107,9.359,7.914,20.023,7.914c1.723,0,3.516-0.072,5.365-0.221
				c-0.288-0.342-0.551-0.697-0.787-1.063c-1.598,0.113-3.146,0.171-4.637,0.171c-9.916,0-17.188-2.506-18.495-7.111
				c-0.274-0.953-0.274-1.951-0.028-2.979c4.011,4.003,12.219,7.125,22.402,8.467c-0.162-0.393-0.289-0.785-0.387-1.184
				c-10.219-1.416-18.242-4.631-21.553-8.658c0.217-0.49,0.484-0.982,0.801-1.482c2.627,3.663,10.387,6.873,20.526,8.343
				c-0.044-3.929,2.78-7.958,7.612-11.217c-5.672-2.702-9.873-6.25-11.815-10.214c-10.317,2.162-17.292,6.22-17.292,10.392
				c0,0.471,0.098,0.935,0.267,1.39c-0.372,0.5-0.695,0.998-0.976,1.49c-0.5-0.904-0.766-1.846-0.766-2.816
				c0-5.136,7.342-9.599,18.164-11.903C141.885,17.265,141.772,16.869,141.684,16.472"/>
			<path fill="#0098CC" d="M143.617,46.364c-11.176,0-18.699-2.988-20.127-7.994c-0.402-1.426-0.295-2.955,0.318-4.55
				c-1.035-1.402-1.559-2.856-1.559-4.322c0-5.524,7.438-10.557,19.41-13.133l0.105-0.022l0.023,0.105
				c0.089,0.395,0.201,0.79,0.333,1.175l0.04,0.116l-0.12,0.025c-11.151,2.374-18.077,6.895-18.077,11.797
				c0,0.873,0.222,1.744,0.66,2.593c0.259-0.44,0.544-0.871,0.85-1.284c-0.168-0.471-0.254-0.933-0.254-1.372
				c0-4.165,6.822-8.286,17.379-10.498l0.083-0.017l0.037,0.075c1.906,3.891,5.975,7.405,11.765,10.164l0.172,0.081l-0.158,0.106
				c-4.85,3.271-7.606,7.325-7.564,11.126l0.002,0.127l-0.126-0.019c-9.923-1.438-17.749-4.595-20.504-8.257
				c-0.271,0.438-0.493,0.855-0.681,1.272c3.305,3.964,11.311,7.164,21.44,8.567l0.073,0.01l0.018,0.071
				c0.101,0.407,0.225,0.789,0.382,1.169l0.071,0.174l-0.186-0.024c-10.099-1.331-18.217-4.374-22.325-8.36
				c-0.2,0.956-0.177,1.875,0.069,2.734c1.251,4.402,8.126,7.031,18.391,7.031c1.477,0,3.033-0.057,4.629-0.17l0.064-0.004
				l0.035,0.054c0.232,0.36,0.494,0.715,0.778,1.053l0.136,0.161l-0.21,0.017C147.162,46.29,145.354,46.364,143.617,46.364z
				 M141.602,16.601c-11.807,2.56-19.135,7.497-19.135,12.897c0,1.435,0.521,2.862,1.552,4.241l0.036,0.048l-0.021,0.056
				c-0.615,1.57-0.727,3.073-0.334,4.469c1.399,4.906,8.846,7.836,19.918,7.836c1.664,0,3.396-0.069,5.148-0.205
				c-0.225-0.277-0.435-0.566-0.626-0.859c-1.579,0.111-3.119,0.167-4.581,0.167c-10.367,0-17.32-2.688-18.6-7.189
				c-0.273-0.952-0.283-1.973-0.029-3.034l0.045-0.188l0.138,0.137c4.005,3.996,12.073,7.059,22.155,8.412
				c-0.119-0.312-0.221-0.627-0.305-0.955c-10.191-1.422-18.244-4.667-21.549-8.687l-0.041-0.052l0.025-0.061
				c0.217-0.49,0.48-0.979,0.809-1.497l0.086-0.136l0.094,0.131c2.622,3.655,10.405,6.824,20.329,8.279
				c0.019-3.797,2.743-7.818,7.505-11.074c-5.707-2.75-9.734-6.24-11.658-10.106c-10.406,2.193-17.124,6.22-17.124,10.268
				c0,0.431,0.087,0.886,0.261,1.352l0.02,0.056l-0.035,0.047c-0.354,0.474-0.679,0.972-0.967,1.479l-0.096,0.169l-0.094-0.169
				c-0.518-0.936-0.78-1.9-0.78-2.869c0-4.993,6.943-9.58,18.13-11.983C141.771,17.257,141.678,16.929,141.602,16.601z"/>
		</g>
		<g>
			<path fill="#8BC53F" d="M159.133,17.488c3.137,1.801,5.574,4.071,7.016,6.706c0.307-0.081,0.617-0.161,0.93-0.238
				c3.904-0.957,7.82-1.41,11.523-1.41c3.34,0,6.506,0.369,9.332,1.068C182.107,20.095,171.398,17.511,159.133,17.488
				 M192.454,24.195c-4.774-5.029-16.14-8.724-29.801-9.334c4.011-0.643,7.842-0.953,11.341-0.953c9.913,0,17.182,2.5,18.494,7.104
				C192.777,22.03,192.75,23.101,192.454,24.195 M173.634,12.744c-5.18,0-11.008,0.664-17.071,2.047
				c-1.107,0.024-2.201,0.07-3.281,0.135c1.074,0.351,2.109,0.744,3.092,1.175c0.111-0.026,0.225-0.054,0.339-0.082
				c0.681-0.013,1.362-0.021,2.05-0.021c14.849,0,27.525,3.603,32.568,8.684c0.84,0.324,1.633,0.685,2.375,1.082
				c-0.123-0.19-0.255-0.379-0.394-0.564c0.61-1.564,0.752-3.096,0.337-4.537C192.193,15.552,184.292,12.744,173.634,12.744"/>
			<path fill="#8BC540" d="M194.025,26.057l-0.371-0.198c-0.73-0.391-1.525-0.753-2.363-1.076l-0.037-0.024
				c-5.137-5.175-18.194-8.652-32.492-8.652c-0.619,0-1.267,0.007-2.035,0.021l-0.364,0.088l-0.034-0.015
				c-0.976-0.429-2.013-0.823-3.081-1.171l-0.544-0.178l0.571-0.034c1.073-0.064,2.175-0.11,3.274-0.135
				c5.876-1.339,11.783-2.047,17.085-2.047c11.171,0,18.692,2.989,20.118,7.996c0.406,1.408,0.3,2.939-0.318,4.55
				c0.131,0.177,0.254,0.353,0.363,0.521L194.025,26.057z M191.391,24.588c0.694,0.269,1.359,0.563,1.982,0.879
				c-0.048-0.067-0.098-0.135-0.148-0.203l-0.036-0.049l0.022-0.056c0.618-1.586,0.73-3.089,0.333-4.468
				c-1.398-4.908-8.841-7.838-19.91-7.838c-5.288,0-11.184,0.706-17.048,2.043l-0.021,0.003c-0.908,0.021-1.818,0.055-2.713,0.103
				c0.873,0.301,1.723,0.631,2.531,0.984l0.327-0.076c0.776-0.015,1.429-0.021,2.052-0.021c7.198,0,14.111,0.844,19.99,2.44
				C184.495,19.889,188.865,22.053,191.391,24.588z M192.509,24.41l-0.134-0.14c-4.875-5.136-16.266-8.699-29.727-9.301
				l-1.063-0.048l1.052-0.168c3.957-0.633,7.777-0.954,11.357-0.954c10.364,0,17.316,2.685,18.6,7.183
				c0.285,1.008,0.273,2.099-0.035,3.241L192.509,24.41z M163.725,14.807c12.926,0.734,23.82,4.211,28.673,9.173
				c0.251-1.036,0.247-2.023-0.013-2.938c-1.254-4.399-8.129-7.025-18.391-7.025C170.744,14.017,167.295,14.282,163.725,14.807z
				 M166.094,24.321l-0.041-0.075c-1.406-2.572-3.754-4.814-6.975-6.664l-0.354-0.203l0.409,0.001
				c11.564,0.021,22.623,2.375,28.857,6.142l0.612,0.37l-0.694-0.172c-2.858-0.707-5.989-1.065-9.307-1.065
				c-3.822,0-7.69,0.474-11.498,1.407c-0.312,0.076-0.621,0.156-0.928,0.237L166.094,24.321z M159.536,17.599
				c3.047,1.812,5.288,3.985,6.667,6.469c0.279-0.074,0.562-0.146,0.85-0.217c3.824-0.938,7.709-1.413,11.549-1.413
				c3.062,0,5.967,0.304,8.647,0.903C181.025,19.851,170.537,17.671,159.536,17.599z"/>
		</g>
		<g>
			<path fill="#AB2784" d="M193.73,33.209c-0.523,0.116-1.053,0.226-1.586,0.329c-3.688,4.671-13.698,8.266-26.156,9.283
				c2.754-0.807,5.374-1.727,7.833-2.724c7.269-1.336,13.057-3.581,16.2-6.194c-3.109,0.475-6.414,0.73-9.85,0.73
				c-0.584,0-1.174-0.008-1.764-0.023c-3.988-0.1-7.835-0.535-11.441-1.252c-0.979,2.881-3.074,5.624-6.057,8.01
				c2.634-0.058,5.188-0.229,7.628-0.499c-1.938,0.633-3.946,1.222-6.026,1.748c-0.674,0.171-1.342,0.332-2.008,0.485
				c-0.576,0.007-1.16,0.015-1.742,0.015c-0.098,0-0.197,0-0.297-0.001c-1.306,0.838-2.73,1.611-4.264,2.318
				c2.117-0.314,4.281-0.72,6.479-1.223C176.637,43.848,189.846,39.292,193.73,33.209"/>
			<path fill="#AC2683" d="M153.466,45.653l0.689-0.317c1.523-0.702,2.954-1.479,4.251-2.312l0.027-0.018l0.032,0.001
				c0.614,0.007,1.212-0.004,1.81-0.011l0.216-0.002c0.661-0.154,1.332-0.316,1.993-0.482c1.65-0.418,3.334-0.896,5.021-1.427
				c-2.156,0.211-4.368,0.343-6.593,0.392l-0.32,0.007l0.25-0.2c2.98-2.384,5.062-5.137,6.021-7.961l0.031-0.09l0.094,0.02
				c3.681,0.73,7.523,1.15,11.422,1.248c0.579,0.016,1.172,0.023,1.762,0.023c3.36,0,6.668-0.245,9.832-0.729l0.387-0.059
				l-0.301,0.25c-3.168,2.635-9.086,4.899-16.238,6.215c-2.204,0.894-4.492,1.705-6.814,2.418
				c11.895-1.123,21.427-4.596,25.021-9.149l0.025-0.032l0.039-0.008c0.52-0.1,1.053-0.211,1.584-0.328l0.256-0.056l-0.141,0.221
				c-3.99,6.248-17.304,10.689-33.129,11.054c-2.153,0.492-4.332,0.902-6.477,1.221L153.466,45.653z M158.496,43.226
				c-1.104,0.706-2.305,1.373-3.574,1.988c1.902-0.3,3.828-0.672,5.733-1.107l0.021-0.002c7.76-0.178,15.028-1.337,21.021-3.352
				c5.758-1.938,9.828-4.485,11.796-7.381c-0.433,0.094-0.865,0.183-1.289,0.265c-3.757,4.718-13.792,8.278-26.206,9.293
				l-1.059,0.087l1.02-0.299c2.668-0.783,5.299-1.698,7.821-2.721l0.021-0.006c6.894-1.268,12.629-3.416,15.84-5.921
				c-3.055,0.445-6.238,0.671-9.469,0.671c-0.592,0-1.187-0.008-1.768-0.022c-3.877-0.097-7.7-0.513-11.365-1.235
				c-0.959,2.752-2.965,5.432-5.812,7.77c2.471-0.063,4.924-0.229,7.3-0.492l1.048-0.115l-1.002,0.326
				c-2.024,0.661-4.055,1.25-6.034,1.751c-0.667,0.169-1.343,0.332-2.01,0.485l-0.022,0.004l-0.228,0.002
				C159.689,43.222,159.1,43.231,158.496,43.226z"/>
		</g>
		<g>
			<path fill="#6F3D23" d="M178.602,22.546c-3.703,0-7.619,0.453-11.523,1.41c-0.312,0.077-0.623,0.157-0.93,0.238
				c0.312,0.572,0.58,1.165,0.796,1.771c0.88,2.474,0.843,4.982,0.022,7.393c3.606,0.717,7.453,1.152,11.441,1.252
				c0.59,0.016,1.18,0.023,1.764,0.023c3.436,0,6.74-0.256,9.85-0.73c1.67-1.391,2.594-2.885,2.594-4.405
				c0-0.667-0.189-1.335-0.532-1.987c0.237-0.359,0.448-0.717,0.646-1.076c0.611,1.006,0.939,2.053,0.939,3.127
				c0,1.385-0.533,2.719-1.523,3.977c0.533-0.104,1.062-0.213,1.586-0.329c0.758-1.185,1.161-2.429,1.161-3.711
				c0-1.292-0.413-2.547-1.187-3.735c-0.742-0.397-1.535-0.758-2.375-1.082c0.246,0.246,0.475,0.496,0.683,0.751
				c-0.162,0.359-0.352,0.729-0.577,1.096c-0.797-1.016-1.984-1.996-3.502-2.913C185.107,22.915,181.941,22.546,178.602,22.546"/>
			<path fill="#6F3E22" d="M180.172,34.741c-0.592,0-1.187-0.008-1.768-0.022c-3.91-0.099-7.766-0.521-11.459-1.253l-0.121-0.025
				l0.039-0.117c0.838-2.461,0.83-4.925-0.021-7.321c-0.211-0.595-0.477-1.186-0.789-1.756l-0.066-0.121l0.135-0.036
				c0.307-0.081,0.617-0.161,0.932-0.238c3.824-0.938,7.709-1.413,11.549-1.413c3.335,0,6.483,0.36,9.358,1.071l0.03,0.013
				c1.482,0.896,2.637,1.843,3.432,2.816c0.165-0.277,0.317-0.57,0.464-0.89c-0.188-0.228-0.396-0.454-0.632-0.69l-0.362-0.362
				l0.478,0.185c0.847,0.326,1.649,0.691,2.387,1.087l0.025,0.013l0.016,0.023c0.799,1.228,1.203,2.504,1.203,3.795
				c0,1.279-0.396,2.548-1.178,3.77l-0.024,0.038l-0.044,0.01c-0.533,0.117-1.068,0.229-1.59,0.329l-0.286,0.056l0.181-0.229
				c0.996-1.263,1.501-2.578,1.501-3.909c0-0.974-0.278-1.951-0.828-2.908c-0.175,0.31-0.347,0.594-0.522,0.863
				c0.342,0.668,0.515,1.334,0.515,1.981c0,1.524-0.886,3.034-2.634,4.489l-0.022,0.02l-0.03,0.004
				C186.862,34.495,183.543,34.741,180.172,34.741z M167.109,33.276c3.645,0.717,7.445,1.129,11.301,1.225
				c0.579,0.016,1.172,0.023,1.762,0.023c3.35,0,6.647-0.244,9.803-0.724c1.68-1.405,2.531-2.853,2.531-4.303
				c0-0.63-0.174-1.282-0.52-1.937l-0.029-0.058l0.035-0.053c0.217-0.328,0.426-0.678,0.642-1.069l0.091-0.164l0.098,0.16
				c0.633,1.044,0.954,2.115,0.954,3.184c0,1.301-0.462,2.582-1.372,3.814c0.415-0.082,0.837-0.17,1.259-0.264
				c0.743-1.174,1.12-2.391,1.12-3.614c0-1.239-0.389-2.469-1.154-3.653c-0.587-0.312-1.216-0.607-1.875-0.878
				c0.121,0.133,0.234,0.264,0.343,0.396l0.042,0.053l-0.027,0.062c-0.182,0.403-0.373,0.766-0.584,1.107l-0.082,0.133l-0.096-0.123
				c-0.779-0.992-1.943-1.961-3.458-2.878c-2.854-0.704-5.979-1.062-9.29-1.062c-3.822,0-7.69,0.474-11.498,1.407
				c-0.267,0.065-0.531,0.134-0.795,0.202c0.289,0.543,0.537,1.103,0.738,1.665C167.902,28.334,167.923,30.806,167.109,33.276z"/>
		</g>
		<g>
			<path fill="#4A3574" d="M147.051,42.335c0.098,0.398,0.225,0.791,0.387,1.184c2.437,0.32,4.983,0.54,7.615,0.645
				c-2.357,0.383-4.653,0.648-6.857,0.808c0.236,0.366,0.499,0.722,0.787,1.063c1.695-0.136,3.438-0.336,5.219-0.6
				c1.533-0.707,2.958-1.48,4.264-2.318C154.465,43.104,150.623,42.828,147.051,42.335 M154.438,29.32
				c-4.832,3.259-7.656,7.288-7.612,11.217c3.769,0.545,7.863,0.852,12.147,0.852c0.648,0,1.297-0.007,1.938-0.021
				c2.982-2.386,5.078-5.129,6.057-8.01C162.326,32.438,158.079,31.052,154.438,29.32"/>
			<path fill="#4B3475" d="M148.936,46.147l-0.036-0.043c-0.29-0.345-0.558-0.706-0.795-1.074l-0.1-0.154l0.183-0.014
				c1.897-0.137,3.836-0.352,5.779-0.641c-2.215-0.115-4.411-0.314-6.543-0.595l-0.062-0.009l-0.023-0.058
				c-0.161-0.391-0.289-0.782-0.393-1.2l-0.039-0.155l0.159,0.022c3.663,0.506,7.499,0.768,11.399,0.78l0.369,0.001l-0.311,0.199
				c-1.306,0.837-2.745,1.619-4.277,2.325l-0.029,0.009c-1.771,0.263-3.529,0.465-5.226,0.601L148.936,46.147z M148.389,45.065
				c0.196,0.293,0.411,0.58,0.641,0.855c1.67-0.135,3.399-0.334,5.141-0.592c1.396-0.644,2.715-1.352,3.923-2.106
				c-3.726-0.026-7.39-0.281-10.896-0.759c0.087,0.329,0.192,0.644,0.318,0.956c2.453,0.319,4.989,0.534,7.542,0.635l1.078,0.043
				l-1.064,0.173C152.828,44.634,150.581,44.901,148.389,45.065z M158.973,41.497c-4.158,0-8.25-0.287-12.163-0.853l-0.093-0.013
				v-0.094c-0.043-3.875,2.749-7.996,7.66-11.308l0.052-0.035l0.056,0.026c3.711,1.766,7.918,3.122,12.504,4.031l0.121,0.023
				l-0.04,0.117c-0.974,2.863-3.079,5.65-6.091,8.061l-0.029,0.022l-0.037,0.001C160.277,41.491,159.625,41.497,158.973,41.497z
				 M146.934,40.442c3.874,0.557,7.925,0.838,12.039,0.838c0.639,0,1.276-0.006,1.898-0.02c2.922-2.345,4.979-5.047,5.952-7.82
				c-4.532-0.906-8.694-2.251-12.376-3.995C149.669,32.682,146.937,36.683,146.934,40.442z"/>
		</g>
		<g>
			<path fill="#28845F" d="M153.281,14.926c-4.135,0.249-8.042,0.779-11.598,1.546c0.089,0.397,0.201,0.793,0.336,1.187
				c2.666-0.567,5.543-1.004,8.574-1.287c-2.578,0.778-5.037,1.657-7.34,2.606c-0.212,0.04-0.424,0.085-0.632,0.129
				c1.942,3.964,6.144,7.512,11.815,10.214c3.136-2.115,7.117-3.903,11.711-5.126c-1.441-2.635-3.879-4.905-7.016-6.706
				c-0.053,0-0.105,0-0.16,0c-3.279,0-6.441,0.182-9.439,0.519c1.776-0.569,3.609-1.103,5.506-1.58
				c0.443-0.113,0.891-0.219,1.334-0.326C155.391,15.67,154.355,15.276,153.281,14.926"/>
			<path fill="#26855F" d="M154.447,29.445l-0.056-0.027c-5.835-2.779-9.938-6.328-11.867-10.264l-0.062-0.125l0.18-0.038
				c0.191-0.04,0.386-0.081,0.58-0.119c2.031-0.836,4.148-1.603,6.306-2.285c-2.605,0.277-5.119,0.673-7.486,1.178l-0.095,0.021
				l-0.031-0.091c-0.135-0.393-0.248-0.796-0.339-1.199l-0.023-0.106l0.106-0.023c3.621-0.78,7.527-1.302,11.614-1.548l0.021-0.001
				l0.02,0.006c1.075,0.351,2.119,0.747,3.102,1.179l0.295,0.129l-0.657,0.159c-0.329,0.079-0.659,0.159-0.987,0.243
				c-1.478,0.372-2.947,0.784-4.466,1.253c2.728-0.27,5.538-0.405,8.372-0.405h0.188l0.025,0.014
				c3.257,1.869,5.631,4.14,7.057,6.749l0.066,0.121l-0.134,0.035c-4.432,1.181-8.471,2.948-11.678,5.111L154.447,29.445z
				 M142.781,19.184c1.926,3.828,5.949,7.287,11.647,10.012c3.187-2.139,7.178-3.891,11.558-5.07
				c-1.41-2.516-3.725-4.711-6.883-6.528h-0.131c-3.201,0-6.373,0.175-9.428,0.519l-0.045-0.212
				c1.896-0.607,3.699-1.125,5.513-1.582c0.329-0.084,0.66-0.164,0.99-0.243l0.028-0.007c-0.883-0.377-1.811-0.725-2.764-1.036
				c-4.027,0.244-7.881,0.755-11.453,1.52c0.076,0.328,0.17,0.656,0.277,0.978c2.672-0.565,5.529-0.992,8.492-1.27l0.042,0.212
				c-2.513,0.759-4.979,1.635-7.331,2.603l-0.021,0.007C143.109,19.115,142.945,19.149,142.781,19.184z"/>
		</g>
		<g>
			<path fill="#462E26" d="M166.148,24.194c-4.594,1.223-8.575,3.011-11.711,5.126c3.642,1.731,7.889,3.118,12.529,4.038
				c0.82-2.41,0.857-4.919-0.022-7.393C166.729,25.359,166.461,24.767,166.148,24.194"/>
			<path fill="#452E26" d="M167.111,33.608l-0.188-0.037c-4.611-0.914-8.844-2.277-12.579-4.055l-0.344-0.164l0.315-0.212
				c3.236-2.184,7.309-3.967,11.775-5.156l0.165-0.044l0.082,0.149c0.32,0.586,0.593,1.192,0.81,1.803
				c0.878,2.468,0.886,5.003,0.023,7.536L167.111,33.608z M154.879,29.288c3.566,1.658,7.582,2.942,11.941,3.82
				c0.77-2.379,0.742-4.756-0.08-7.07c-0.191-0.537-0.428-1.071-0.702-1.59C161.828,25.586,157.982,27.254,154.879,29.288z"/>
		</g>
		<g>
			<g>
				<path fill="#FFFFFF" d="M138.35,31.634c-0.145-0.135-0.34-0.184-0.547-0.183h-5.311c-0.23-0.001-0.406-0.067-0.57-0.206
					c-0.158-0.139-0.223-0.276-0.223-0.468v-2.774c0-0.194,0.064-0.33,0.223-0.471c0.164-0.139,0.34-0.204,0.57-0.205h3.771
					c0.207,0,0.399-0.049,0.544-0.184c0.145-0.134,0.201-0.33,0.201-0.531c0-0.198-0.059-0.393-0.203-0.524
					c-0.143-0.131-0.336-0.179-0.542-0.179h-3.771c-0.617-0.001-1.166,0.201-1.607,0.598c-0.447,0.396-0.683,0.912-0.68,1.496v2.774
					c-0.003,0.577,0.235,1.091,0.683,1.485c0.444,0.404,0.994,0.607,1.604,0.605h5.321c0.204,0,0.392-0.049,0.534-0.179
					c0.144-0.133,0.201-0.326,0.201-0.525C138.549,31.962,138.493,31.769,138.35,31.634z"/>
			</g>
			<g>
				<path fill="#FFFFFF" d="M146.881,26.507c-0.443-0.396-0.994-0.599-1.609-0.598h-3.768c-0.619-0.001-1.167,0.201-1.609,0.598
					c-0.446,0.396-0.682,0.912-0.68,1.496v2.774c-0.002,0.577,0.236,1.091,0.685,1.485c0.439,0.4,0.983,0.605,1.59,0.605h3.782
					c0.594,0.002,1.129-0.195,1.569-0.574c0.472-0.391,0.722-0.918,0.72-1.517v-2.774C147.562,27.419,147.324,26.902,146.881,26.507
					z M145.271,31.451h-3.768c-0.231-0.001-0.408-0.067-0.572-0.206c-0.158-0.139-0.221-0.276-0.225-0.468v-2.774
					c0.004-0.194,0.066-0.33,0.225-0.471c0.164-0.139,0.341-0.204,0.572-0.205h3.768c0.229,0.001,0.406,0.066,0.568,0.205
					c0.158,0.141,0.223,0.276,0.225,0.471v2.774c-0.002,0.191-0.066,0.329-0.225,0.468C145.678,31.384,145.501,31.45,145.271,31.451
					z"/>
			</g>
			<g>
				<path fill="#FFFFFF" d="M155.137,26.507c-0.443-0.396-0.993-0.599-1.608-0.598h-2.485c-0.354,0-0.686,0.067-0.994,0.2
					c-0.139-0.136-0.341-0.206-0.548-0.2c-0.206,0-0.397,0.048-0.545,0.179c-0.144,0.132-0.203,0.326-0.202,0.524v5.552
					c-0.001,0.198,0.059,0.393,0.202,0.525c0.147,0.131,0.339,0.181,0.545,0.179c0.208,0.002,0.401-0.048,0.544-0.179
					c0.146-0.133,0.204-0.327,0.203-0.525v-4.161c0.004-0.194,0.064-0.33,0.225-0.471c0.163-0.139,0.34-0.204,0.57-0.205h2.485
					c0.228,0.001,0.405,0.066,0.569,0.205c0.158,0.141,0.223,0.276,0.225,0.471v4.161c0,0.198,0.058,0.393,0.201,0.525
					c0.143,0.131,0.338,0.181,0.547,0.179h0.008c0.204,0,0.393-0.049,0.535-0.179c0.144-0.133,0.205-0.326,0.203-0.525v-4.161
					C155.819,27.419,155.582,26.902,155.137,26.507z"/>
			</g>
			<g>
				<path fill="#FFFFFF" d="M163.067,30.092c0.595,0.001,1.128-0.188,1.569-0.563c0.473-0.397,0.724-0.927,0.719-1.525
					c0.005-0.584-0.232-1.101-0.679-1.496c-0.441-0.396-0.992-0.599-1.609-0.598h-3.767c-0.618-0.001-1.168,0.201-1.609,0.598
					c-0.445,0.396-0.684,0.912-0.68,1.496v2.774c-0.004,0.577,0.234,1.091,0.686,1.485c0.441,0.404,0.99,0.607,1.604,0.605h3.777
					c0.204,0,0.393-0.049,0.533-0.179c0.147-0.133,0.205-0.327,0.205-0.525c0-0.202-0.058-0.396-0.203-0.53
					c-0.145-0.135-0.338-0.184-0.546-0.183h-3.767c-0.23-0.001-0.408-0.067-0.572-0.206c-0.159-0.139-0.221-0.276-0.224-0.468
					v-0.686H163.067z M159.301,27.327h3.767c0.228,0.001,0.401,0.062,0.558,0.189c0.168,0.146,0.234,0.288,0.237,0.486
					c-0.003,0.192-0.067,0.329-0.225,0.474c-0.164,0.141-0.341,0.207-0.57,0.207h-4.562v-0.681c0.003-0.194,0.064-0.33,0.224-0.471
					C158.893,27.394,159.07,27.328,159.301,27.327z"/>
			</g>
			<g>
				<path fill="#FFFFFF" d="M174.439,31.634c-0.143-0.135-0.339-0.184-0.546-0.183h-5.311c-0.227-0.001-0.406-0.067-0.571-0.206
					c-0.157-0.139-0.22-0.276-0.224-0.468v-2.774c0.004-0.194,0.066-0.33,0.224-0.471c0.165-0.139,0.345-0.204,0.571-0.205h3.769
					c0.209,0,0.404-0.049,0.547-0.184c0.144-0.134,0.201-0.33,0.199-0.531c0.002-0.198-0.057-0.393-0.2-0.524
					c-0.145-0.131-0.339-0.179-0.546-0.179h-3.769c-0.616-0.001-1.167,0.201-1.606,0.598c-0.447,0.396-0.686,0.912-0.682,1.496
					v2.774c-0.004,0.577,0.238,1.091,0.686,1.485c0.443,0.404,0.99,0.607,1.603,0.605h5.321c0.203,0,0.393-0.049,0.533-0.179
					c0.146-0.133,0.205-0.326,0.203-0.525C174.643,31.962,174.584,31.769,174.439,31.634z"/>
			</g>
			<g>
				<path fill="#FFFFFF" d="M179.158,26.091c-0.143-0.134-0.336-0.182-0.547-0.182h-1.138v-1.214c0.003-0.202-0.056-0.396-0.2-0.53
					c-0.144-0.134-0.336-0.182-0.545-0.182s-0.402,0.046-0.547,0.182c-0.144,0.134-0.201,0.328-0.201,0.53v1.214h-0.109
					c-0.209,0-0.401,0.048-0.544,0.182c-0.146,0.135-0.203,0.332-0.202,0.532c-0.001,0.2,0.057,0.395,0.202,0.528
					c0.143,0.135,0.335,0.184,0.544,0.184h0.109v4.819c0,0.203,0.058,0.399,0.201,0.53c0.145,0.135,0.338,0.186,0.547,0.184h0.01
					c0.203,0,0.396-0.051,0.535-0.184c0.145-0.135,0.203-0.329,0.2-0.53v-4.819h1.138c0.211,0,0.404-0.049,0.547-0.184
					c0.145-0.134,0.201-0.328,0.199-0.528C179.359,26.423,179.303,26.226,179.158,26.091z"/>
			</g>
			<g>
				<path fill="#FFFFFF" d="M186.801,26.509c-0.443-0.399-0.994-0.601-1.609-0.6h-3.768c-0.21,0-0.402,0.048-0.545,0.179
					c-0.146,0.134-0.205,0.326-0.204,0.526c-0.001,0.199,0.058,0.396,0.204,0.529c0.143,0.135,0.335,0.183,0.545,0.183h3.768
					c0.227,0.002,0.406,0.067,0.57,0.206c0.16,0.141,0.221,0.276,0.225,0.469v0.675h-4.562c-0.619-0.001-1.169,0.204-1.611,0.604
					c-0.445,0.396-0.682,0.914-0.68,1.497c-0.002,0.578,0.236,1.09,0.686,1.486c0.443,0.401,0.993,0.607,1.605,0.605h3.768
					c0.352,0,0.686-0.068,0.99-0.205c0.133,0.134,0.328,0.207,0.527,0.207c0.008,0,0.016,0,0.023-0.002
					c0.209,0,0.4-0.049,0.543-0.179c0.146-0.133,0.206-0.326,0.205-0.525v-4.163C187.481,27.419,187.244,26.904,186.801,26.509z
					 M180.854,30.294c0.164-0.142,0.342-0.209,0.57-0.211h4.562v0.693c-0.004,0.192-0.064,0.33-0.227,0.471
					c-0.162,0.137-0.342,0.203-0.568,0.204h-3.768c-0.23-0.001-0.408-0.067-0.572-0.204c-0.16-0.141-0.222-0.277-0.223-0.471
					C180.63,30.584,180.695,30.443,180.854,30.294z"/>
			</g>
		</g>
	</g>
</g>
</svg>
