<?xml version="1.0" encoding="utf-8"?>
<!-- Generator: Adobe Illustrator 20.0.0, SVG Export Plug-In . SVG Version: 6.00 Build 0)  -->
<svg version="1.1" id="Layer_1" xmlns="http://www.w3.org/2000/svg" xmlns:xlink="http://www.w3.org/1999/xlink" x="0px" y="0px"
	 viewBox="0 0 110.5 123" style="enable-background:new 0 0 110.5 123;" xml:space="preserve">
<style type="text/css">
	.st0{fill:#0F9BF2;}
	.st1{fill:none;}
</style>
<path class="st0" d="M84.3,77.6c-9,0-18.6,1.8-18.6,5.6v26.1c0,4.4,11.7,5.6,18.6,5.6c6.9,0,18.6-1.2,18.6-5.6V83.2
	C102.9,79.4,93.3,77.6,84.3,77.6z M101.1,102.8c0,1.5-6.5,3.7-16.8,3.7s-16.8-2.2-16.8-3.7V99c3.6,2.2,11.5,2.9,16.8,2.9
	c5.2,0,13.2-0.7,16.8-2.9V102.8z M101.1,96.3c0,1.5-6.5,3.7-16.8,3.7s-16.8-2.2-16.8-3.7v-3.8c3.6,2.2,11.5,2.9,16.8,2.9
	c5.2,0,13.2-0.7,16.8-2.9V96.3z M101.1,89.7c0,1.5-6.5,3.7-16.8,3.7s-16.8-2.2-16.8-3.7v-3.9c3.2,2,10.2,3,16.8,3s13.5-0.9,16.8-3
	V89.7z M84.3,79.5c10.8,0,16.8,2.5,16.8,3.7c0,1.3-5.9,3.7-16.8,3.7c-10.8,0-16.8-2.5-16.8-3.7C67.5,81.9,73.4,79.5,84.3,79.5z
	 M84.3,113.1c-10.2,0-16.8-2.2-16.8-3.7v-3.8c3.6,2.2,11.5,2.9,16.8,2.9c5.2,0,13.2-0.7,16.8-2.9v3.8
	C101.1,110.8,94.5,113.1,84.3,113.1z"/>
<path class="st0" d="M29,90.7c-9,0-18.6,1.8-18.6,5.6v13.1c0,4.4,11.7,5.6,18.6,5.6c6.9,0,18.6-1.2,18.6-5.6V96.3
	C47.7,92.4,38,90.7,29,90.7z M45.8,102.8c0,1.5-6.5,3.7-16.8,3.7c-10.2,0-16.8-2.2-16.8-3.7v-3.9c3.2,2,10.2,3,16.8,3
	c6.6,0,13.5-0.9,16.8-3V102.8z M29,92.5c10.8,0,16.8,2.5,16.8,3.7c0,1.3-5.9,3.7-16.8,3.7c-10.8,0-16.8-2.5-16.8-3.7
	C12.3,95,18.2,92.5,29,92.5z M29,113.1c-10.2,0-16.8-2.2-16.8-3.7v-3.8c3.6,2.2,11.5,2.9,16.8,2.9c5.2,0,13.2-0.7,16.8-2.9v3.8
	C45.8,110.8,39.3,113.1,29,113.1z"/>
<g>
	<path class="st0" d="M92.1,68.5L92.1,68.5l-7.4,7.3c0,0,0,0,0,0h0c-0.1,0-0.1,0.1-0.2,0.1h0l-0.1,0L84,76.1l0,0l-0.1,0h0l-0.1,0
		c-0.1,0-0.2,0-0.4-0.1c0,0,0,0-0.1,0c0,0,0,0,0,0l-0.2-0.1h0c0,0,0,0,0,0c-0.1,0-0.1-0.1-0.2-0.1c0,0,0,0,0,0l-7.7-7.2
		c-0.1-0.1-0.3-0.3-0.3-0.5c-0.1-0.1-0.1-0.3-0.1-0.4c0-0.1,0-0.2,0-0.3c0-0.1,0-0.3,0.1-0.4c0.1-0.2,0.2-0.4,0.3-0.5
		c0.5-0.6,1.4-0.6,2-0.1c0,0,0,0,0.1,0l5,4.7l0,0l0.3,0.2l-0.5-4c0-0.3-0.1-0.6-0.2-0.9c0-0.2-0.1-0.4-0.1-0.6
		c-0.5-2.2-1.3-4.3-2.5-6.1c0,0,0,0,0,0c-0.3-0.4-0.6-0.9-0.9-1.3c0,0-0.1-0.1-0.1-0.1c-0.3-0.4-0.6-0.7-1-1.1
		c-0.1-0.1-0.1-0.1-0.2-0.1c-0.3-0.3-0.7-0.6-1-0.9c-0.1-0.1-0.2-0.1-0.2-0.2c-0.3-0.3-0.7-0.5-1-0.8c-0.1-0.1-0.2-0.1-0.3-0.2
		c-0.3-0.2-0.7-0.4-1-0.6c-0.1-0.1-0.3-0.2-0.4-0.2c-0.3-0.2-0.7-0.3-1-0.5c-0.2-0.1-0.3-0.1-0.5-0.2c-0.3-0.1-0.7-0.3-1-0.4
		c-0.2-0.1-0.4-0.1-0.5-0.2c-0.3-0.1-0.7-0.2-1-0.3c-0.2,0-0.4-0.1-0.6-0.1c-0.4-0.1-0.7-0.1-1.1-0.2c-0.2,0-0.3-0.1-0.5-0.1
		C66.3,52,65.7,52,65.1,52c-0.8,0-1.5-0.7-1.5-1.5c0-0.8,0.7-1.5,1.5-1.5c0.7,0,1.4,0,2,0.1c0.1,0,0.3,0,0.4,0.1
		c0.3,0,0.5,0.1,0.8,0.1v0c0.3,0,0.5,0.1,0.8,0.1c0.1,0,0.2,0.1,0.3,0.1c0.5,0.1,1.1,0.3,1.6,0.4c0.1,0,0.1,0,0.2,0.1
		c0.6,0.2,1.1,0.4,1.7,0.6c0,0,0,0,0.1,0c0.6,0.2,1.1,0.5,1.7,0.8c0,0,0.1,0,0.1,0c0.5,0.3,1.1,0.6,1.6,1c0.1,0.1,0.2,0.2,0.3,0.3
		c0.4,0.3,0.8,0.6,1.2,0.9c0.5,0.4,1,0.9,1.4,1.3c0,0,0,0,0,0c0.4,0.4,0.8,0.9,1.2,1.4c0.1,0.1,0.2,0.2,0.3,0.4
		c0.3,0.4,0.6,0.8,0.9,1.2c0.1,0.1,0.2,0.3,0.3,0.4c0.3,0.4,0.5,0.8,0.7,1.2c0.1,0.1,0.2,0.3,0.2,0.5c0.2,0.4,0.4,0.8,0.6,1.3
		c0.1,0.2,0.1,0.3,0.2,0.5c0.2,0.4,0.3,0.9,0.5,1.3c0.1,0.2,0.1,0.3,0.1,0.5c0.1,0.5,0.2,0.9,0.4,1.4c0,0.2,0.1,0.4,0.1,0.5
		c0.1,0.5,0.2,0.9,0.2,1.4c0,0.2,0.1,0.4,0.1,0.6c0.1,0.6,0.1,1.2,0.1,1.8l0.1,2l0.1-0.1v0l4.7-4.8c0.6-0.6,1.5-0.6,2.1,0
		c0,0,0.1,0.1,0.1,0.1c0.1,0.1,0.2,0.2,0.2,0.4c0.1,0.2,0.1,0.4,0.1,0.6c0,0.2,0,0.4-0.1,0.6C92.3,68.1,92.2,68.3,92.1,68.5z"/>
</g>
<g>
	<path class="st1" d="M73.5,33.8H89c0.9,0,1.5,0.7,1.5,1.5c0,0.9-0.7,1.5-1.5,1.5H73.5c-0.9,0-1.5-0.7-1.5-1.5
		C72,34.5,72.7,33.8,73.5,33.8z M36.4,46.1H24c-0.9,0-1.5-0.7-1.5-1.5c0-0.9,0.7-1.5,1.5-1.5h12.4c0.9,0,1.5,0.7,1.5,1.5
		C37.9,45.4,37.2,46.1,36.4,46.1z M54.9,36.9H24c-0.9,0-1.5-0.7-1.5-1.5c0-0.9,0.7-1.5,1.5-1.5h31c0.9,0,1.5,0.7,1.5,1.5
		C56.5,36.2,55.8,36.9,54.9,36.9z"/>
	<path class="st1" d="M93.6,9.1H19.3c-3.5,0-6.2,2.7-6.2,6.2v6.2h86.7v-6.2C99.8,11.8,97.1,9.1,93.6,9.1z"/>
	<path class="st0" d="M73.5,36.9H89c0.9,0,1.5-0.7,1.5-1.5c0-0.9-0.7-1.5-1.5-1.5H73.5c-0.9,0-1.5,0.7-1.5,1.5
		C72,36.2,72.7,36.9,73.5,36.9z"/>
	<path class="st0" d="M36.4,43H24c-0.9,0-1.5,0.7-1.5,1.5c0,0.9,0.7,1.5,1.5,1.5h12.4c0.9,0,1.5-0.7,1.5-1.5
		C37.9,43.7,37.2,43,36.4,43z"/>
	<path class="st0" d="M54.9,33.8H24c-0.9,0-1.5,0.7-1.5,1.5c0,0.9,0.7,1.5,1.5,1.5h31c0.9,0,1.5-0.7,1.5-1.5
		C56.5,34.5,55.8,33.8,54.9,33.8z"/>
	<path class="st0" d="M93.6,6H19.3c-5.2,0-9.3,4.1-9.3,9.3v40.1c0,5.2,4.1,9.3,9.3,9.3h61.2c-0.3-1.1-0.7-2.1-1.3-3.1H19.3
		c-3.5,0-6.2-2.7-6.2-6.2V24.5h86.7v30.9c0,3.5-2.7,6.2-6.2,6.2h-9c0.2,0.4,0.3,0.8,0.4,1.2c0.1,0.2,0.1,0.4,0.2,0.5
		c0.1,0.4,0.2,0.9,0.4,1.4h8c5.2,0,9.3-4.1,9.3-9.3V15.3C102.9,10.1,98.8,6,93.6,6z M99.8,21.4H13.2v-6.2c0-3.5,2.7-6.2,6.2-6.2
		h74.3c3.5,0,6.2,2.7,6.2,6.2V21.4z"/>
</g>
</svg>
